<?xml version="1.0" standalone="no"?>
<!DOCTYPE svg PUBLIC "-//W3C//DTD SVG 1.1//EN"
"http://www.w3.org/Graphics/SVG/1.1/DTD/svg11.dtd">

<svg width="512" height="68" view_box="0 0 512 68"
xmlns="http://www.w3.org/2000/svg"
xmlns:link="http://www.w3.org/1999/xlink">\n\n<desc>Généré par Mocodo 2.3.7 le Tue, 23 Feb 2021 05:47:50</desc>

<rect id="frame" x="0" y="0" width="512" height="68" fill="#ffffbf" stroke="none" stroke-width="0"/>

<!-- Association ECRIT -->
<line x1="44" y1="34" x2="137" y2="34" stroke="#f46d43" stroke-width="2"/>
<text x="84" y="51.0" fill="#3288bd" font-family="Verdana" font-size="12">1,N</text>
<line x1="231" y1="34" x2="137" y2="34" stroke="#f46d43" stroke-width="2"/>
<text x="169" y="51.0" fill="#3288bd" font-family="Verdana" font-size="12">0,1</text>
<g id="association-ECRIT">
	<path d="M 149 9 a 14 14 90 0 1 14 14 V 34 h -52 V 23 a 14 14 90 0 1 14 -14" fill="#fdae61" stroke="#fdae61" stroke-width="0"/>
	<path d="M 163 34.0 v 11 a 14 14 90 0 1 -14 14 H 125 a 14 14 90 0 1 -14 -14 V 34.0 H 52" fill="#fee08b" stroke="#fee08b" stroke-width="0"/>
	<rect x="111" y="9" width="52" height="50" fill="none" rx="14" stroke="#f46d43" stroke-width="2"/>
	<line x1="111" y1="34" x2="163" y2="34" stroke="#f46d43" stroke-width="1"/>
	<text x="118" y="26.7" fill="#000000" font-family="Verdana" font-size="12">ECRIT</text>
</g>

<!-- Association CONTIENT -->
<line x1="231" y1="34" x2="338" y2="34" stroke="#f46d43" stroke-width="2"/>
<text x="272" y="51.0" fill="#3288bd" font-family="Verdana" font-size="12">1,N</text>
<line x1="456" y1="34" x2="338" y2="34" stroke="#f46d43" stroke-width="2"/>
<text x="382" y="51.0" fill="#3288bd" font-family="Verdana" font-size="12">1,N</text>
<g id="association-CONTIENT">
	<path d="M 363 9 a 14 14 90 0 1 14 14 V 34 h -78 V 23 a 14 14 90 0 1 14 -14" fill="#fdae61" stroke="#fdae61" stroke-width="0"/>
	<path d="M 377 34.0 v 11 a 14 14 90 0 1 -14 14 H 313 a 14 14 90 0 1 -14 -14 V 34.0 H 78" fill="#fee08b" stroke="#fee08b" stroke-width="0"/>
	<rect x="299" y="9" width="78" height="50" fill="none" rx="14" stroke="#f46d43" stroke-width="2"/>
	<line x1="299" y1="34" x2="377" y2="34" stroke="#f46d43" stroke-width="1"/>
	<text x="306" y="26.7" fill="#000000" font-family="Verdana" font-size="12">CONTIENT</text>
</g>

<!-- Entity ARTICLES -->
<g id="entity-ARTICLES">
	<g id="frame-ARTICLES">
		<rect x="195" y="9" width="72" height="25" fill="#abdda4" stroke="#abdda4" stroke-width="0"/>
		<rect x="195" y="34.0" width="72" height="25" fill="#e6f598" stroke="#e6f598" stroke-width="0"/>
		<rect x="195" y="9" width="72" height="50" fill="none" stroke="#66c2a5" stroke-width="2"/>
		<line x1="195" y1="34" x2="267" y2="34" stroke="#66c2a5" stroke-width="1"/>
	</g>
	<text x="200" y="26.7" fill="#000000" font-family="Verdana" font-size="12">ARTICLES</text>
	<text x="200" y="51.8" fill="#000000" font-family="Verdana" font-size="12">id_article</text>
	<line x1="200" y1="54" x2="256" y2="54" stroke="#000000" stroke-width="1"/>
</g>

<!-- Entity AUTEURS -->
<g id="entity-AUTEURS">
	<g id="frame-AUTEURS">
		<rect x="9" y="9" width="70" height="25" fill="#abdda4" stroke="#abdda4" stroke-width="0"/>
		<rect x="9" y="34.0" width="70" height="25" fill="#e6f598" stroke="#e6f598" stroke-width="0"/>
		<rect x="9" y="9" width="70" height="50" fill="none" stroke="#66c2a5" stroke-width="2"/>
		<line x1="9" y1="34" x2="79" y2="34" stroke="#66c2a5" stroke-width="1"/>
	</g>
	<text x="15" y="26.7" fill="#000000" font-family="Verdana" font-size="12">AUTEURS</text>
	<text x="14" y="51.8" fill="#000000" font-family="Verdana" font-size="12">id_auteur</text>
	<line x1="14" y1="54" x2="73" y2="54" stroke="#000000" stroke-width="1"/>
</g>

<!-- Entity CATEGORIES -->
<g id="entity-CATEGORIES">
	<g id="frame-CATEGORIES">
		<rect x="409" y="9" width="94" height="25" fill="#abdda4" stroke="#abdda4" stroke-width="0"/>
		<rect x="409" y="34.0" width="94" height="25" fill="#e6f598" stroke="#e6f598" stroke-width="0"/>
		<rect x="409" y="9" width="94" height="50" fill="none" stroke="#66c2a5" stroke-width="2"/>
		<line x1="409" y1="34" x2="503" y2="34" stroke="#66c2a5" stroke-width="1"/>
	</g>
	<text x="415" y="26.7" fill="#000000" font-family="Verdana" font-size="12">CATEGORIES</text>
	<text x="414" y="51.8" fill="#000000" font-family="Verdana" font-size="12">id_Categories</text>
	<line x1="414" y1="54" x2="498" y2="54" stroke="#000000" stroke-width="1"/>
</g>
</svg>